<?xml version="1.0" encoding="UTF-8" standalone="no"?>
<svg width="77px" height="60px" viewBox="0 0 77 60" version="1.1" xmlns="http://www.w3.org/2000/svg" xmlns:xlink="http://www.w3.org/1999/xlink">
    <!-- Generator: Sketch 41.2 (35397) - http://www.bohemiancoding.com/sketch -->
    <title>Dashboard icon</title>
    <desc>Created with Sketch.</desc>
    <defs></defs>
    <g id="Page-1" stroke="none" stroke-width="1" fill="none" fill-rule="evenodd">
        <g id="slide-2" transform="translate(-255.000000, -373.000000)" fill="#FFFFFF">
            <g id="Content" transform="translate(168.000000, 246.000000)">
                <g id="Small-feature-1" transform="translate(0.000000, 127.000000)">
                    <path d="M103.363636,38.1818182 C103.363636,41.2073864 100.934659,43.6363636 97.9090909,43.6363636 C94.8835227,43.6363636 92.4545455,41.2073864 92.4545455,38.1818182 C92.4545455,35.15625 94.8835227,32.7272727 97.9090909,32.7272727 C100.934659,32.7272727 103.363636,35.15625 103.363636,38.1818182 L103.363636,38.1818182 Z M111.545455,19.0909091 C111.545455,22.1164773 109.116477,24.5454545 106.090909,24.5454545 C103.065341,24.5454545 100.636364,22.1164773 100.636364,19.0909091 C100.636364,16.0653409 103.065341,13.6363636 106.090909,13.6363636 C109.116477,13.6363636 111.545455,16.0653409 111.545455,19.0909091 L111.545455,19.0909091 Z M129.784091,39.5880682 C132.553977,41.5056818 134.002841,45 133.107955,48.4517045 C131.957386,52.7982955 127.482955,55.4403409 123.09375,54.2897727 C118.747159,53.1392045 116.105114,48.6647727 117.255682,44.2755682 C118.193182,40.8238636 121.133523,38.4801136 124.5,38.2244318 L128.803977,21.9460227 C129.1875,20.4971591 130.678977,19.6022727 132.127841,19.9857955 C133.576705,20.3693182 134.428977,21.8607955 134.088068,23.3096591 L129.784091,39.5880682 Z M157.909091,38.1818182 C157.909091,41.2073864 155.480114,43.6363636 152.454545,43.6363636 C149.428977,43.6363636 147,41.2073864 147,38.1818182 C147,35.15625 149.428977,32.7272727 152.454545,32.7272727 C155.480114,32.7272727 157.909091,35.15625 157.909091,38.1818182 L157.909091,38.1818182 Z M130.636364,10.9090909 C130.636364,13.9346591 128.207386,16.3636364 125.181818,16.3636364 C122.15625,16.3636364 119.727273,13.9346591 119.727273,10.9090909 C119.727273,7.88352273 122.15625,5.45454545 125.181818,5.45454545 C128.207386,5.45454545 130.636364,7.88352273 130.636364,10.9090909 L130.636364,10.9090909 Z M149.727273,19.0909091 C149.727273,22.1164773 147.298295,24.5454545 144.272727,24.5454545 C141.247159,24.5454545 138.818182,22.1164773 138.818182,19.0909091 C138.818182,16.0653409 141.247159,13.6363636 144.272727,13.6363636 C147.298295,13.6363636 149.727273,16.0653409 149.727273,19.0909091 L149.727273,19.0909091 Z M163.363636,38.1818182 C163.363636,17.1306818 146.232955,0 125.181818,0 C104.130682,0 87,17.1306818 87,38.1818182 C87,45.5113636 89.0880682,52.6278409 93.0085227,58.7642045 C93.5198864,59.53125 94.3721591,60 95.3096591,60 L155.053977,60 C155.991477,60 156.84375,59.53125 157.355114,58.7642045 C161.275568,52.5852273 163.363636,45.5113636 163.363636,38.1818182 L163.363636,38.1818182 Z" id="Dashboard-icon"></path>
                </g>
            </g>
        </g>
    </g>
</svg>