<?xml version="1.0" encoding="UTF-8" standalone="no"?>
<svg width="60px" height="60px" viewBox="0 0 60 60" version="1.1" xmlns="http://www.w3.org/2000/svg" xmlns:xlink="http://www.w3.org/1999/xlink">
    <!-- Generator: Sketch 41.2 (35397) - http://www.bohemiancoding.com/sketch -->
    <title>Support icon</title>
    <desc>Created with Sketch.</desc>
    <defs></defs>
    <g id="Page-1" stroke="none" stroke-width="1" fill="none" fill-rule="evenodd">
        <g id="slide-2" transform="translate(-833.000000, -373.000000)" fill="#FFFFFF">
            <g id="Content" transform="translate(168.000000, 246.000000)">
                <g id="Small-feature-3" transform="translate(570.000000, 127.000000)">
                    <path d="M125,0 C108.426339,0 95,13.4263393 95,30 C95,46.5736607 108.426339,60 125,60 C141.573661,60 155,46.5736607 155,30 C155,13.4263393 141.573661,0 125,0 L125,0 Z M125,4.28571429 C129.352679,4.28571429 133.470982,5.390625 137.087054,7.29910714 L130.591518,13.7946429 C128.816964,13.1919643 126.975446,12.8571429 125,12.8571429 C123.058036,12.8571429 121.183036,13.1919643 119.408482,13.7946429 L112.912946,7.29910714 C116.529018,5.390625 120.647321,4.28571429 125,4.28571429 L125,4.28571429 Z M102.299107,42.0870536 C100.390625,38.4709821 99.2857143,34.3526786 99.2857143,30 C99.2857143,25.6473214 100.390625,21.5290179 102.299107,17.9129464 L108.794643,24.4084821 C108.191964,26.1830357 107.857143,28.0245536 107.857143,30 C107.857143,31.9419643 108.191964,33.8169643 108.794643,35.5915179 L102.299107,42.0870536 Z M125,55.7142857 C120.647321,55.7142857 116.529018,54.609375 112.912946,52.7008929 L119.408482,46.2053571 C121.183036,46.8080357 123.058036,47.1428571 125,47.1428571 C126.975446,47.1428571 128.816964,46.8080357 130.591518,46.2053571 L137.087054,52.7008929 C133.470982,54.609375 129.352679,55.7142857 125,55.7142857 L125,55.7142857 Z M125,42.8571429 C117.901786,42.8571429 112.142857,37.0982143 112.142857,30 C112.142857,22.9017857 117.901786,17.1428571 125,17.1428571 C132.098214,17.1428571 137.857143,22.9017857 137.857143,30 C137.857143,37.0982143 132.098214,42.8571429 125,42.8571429 L125,42.8571429 Z M141.205357,35.5915179 C141.808036,33.8169643 142.142857,31.9419643 142.142857,30 C142.142857,28.0580357 141.808036,26.1830357 141.205357,24.4084821 L147.700893,17.9129464 C149.609375,21.5290179 150.714286,25.6473214 150.714286,30 C150.714286,34.3526786 149.609375,38.4709821 147.700893,42.0870536 L141.205357,35.5915179 Z" id="Support-icon"></path>
                </g>
            </g>
        </g>
    </g>
</svg>