<?xml version="1.0" encoding="UTF-8" standalone="no"?>
<svg width="60px" height="60px" viewBox="0 0 60 60" version="1.1" xmlns="http://www.w3.org/2000/svg" xmlns:xlink="http://www.w3.org/1999/xlink">
    <!-- Generator: Sketch 41.2 (35397) - http://www.bohemiancoding.com/sketch -->
    <title>Price icon</title>
    <desc>Created with Sketch.</desc>
    <defs></defs>
    <g id="Page-1" stroke="none" stroke-width="1" fill="none" fill-rule="evenodd">
        <g id="slide-2" transform="translate(-1118.000000, -373.000000)" fill="#FFFFFF">
            <g id="Content" transform="translate(168.000000, 246.000000)">
                <g id="Small-feature-4" transform="translate(855.000000, 127.000000)">
                    <path d="M125,60 C141.568542,60 155,46.5685425 155,30 C155,13.4314575 141.568542,0 125,0 C108.431458,0 95,13.4314575 95,30 C95,46.5685425 108.431458,60 125,60 Z M125.879917,39.3632812 C126.908567,39.2330723 127.657258,38.9986996 128.12601,38.6601562 C128.946327,38.0611949 129.356479,37.026049 129.356479,35.5546875 C129.356479,34.4348902 128.972368,33.5494824 128.204135,32.8984375 C127.748404,32.5208314 126.973672,32.1302104 125.879917,31.7265625 L125.879917,39.3632812 Z M124.024448,18.953125 C122.89163,18.9791668 122.051794,19.2818981 121.504917,19.8613281 C120.958039,20.4407581 120.684604,21.2317658 120.684604,22.234375 C120.684604,23.3281305 121.094756,24.1940072 121.915073,24.8320312 C122.370804,25.1835955 123.073922,25.5091131 124.024448,25.8085938 L124.024448,18.953125 Z M125.918979,47.6445312 L124.024448,47.6445312 L124.024448,43.7578125 C121.459331,43.4713527 119.545287,42.9114625 118.28226,42.078125 C116.055687,40.5807217 114.961948,38.0286639 115.00101,34.421875 L120.274448,34.421875 C120.45674,36.0625082 120.710644,37.1627576 121.036167,37.7226562 C121.543982,38.5950564 122.540065,39.161457 124.024448,39.421875 L124.024448,31.0820312 L122.442417,30.6132813 C119.955425,29.8841109 118.200885,28.8684961 117.178745,27.5664062 C116.156604,26.2643164 115.645542,24.6953217 115.645542,22.859375 C115.645542,21.6484314 115.844107,20.548182 116.241245,19.5585938 C116.638382,18.5690055 117.195017,17.7161494 117.911167,17 C118.83565,16.0755162 119.864286,15.4375018 120.997104,15.0859375 C121.687212,14.8645822 122.696316,14.7018234 124.024448,14.5976562 L124.024448,12 L125.879917,12 L125.879917,14.6367188 C128.002323,14.8059904 129.668973,15.3268186 130.879917,16.1992188 C133.080448,17.5924549 134.21976,19.8515469 134.297885,22.9765625 L129.161167,22.9765625 C129.056999,21.8177025 128.861689,20.9713568 128.575229,20.4375 C128.080435,19.5130162 127.182006,19.0052088 125.879917,18.9140625 L125.879917,26.3554688 C128.97889,27.4231824 131.062203,28.3671834 132.129917,29.1875 C133.887738,30.5546943 134.766635,32.4817584 134.766635,34.96875 C134.766635,38.2500164 133.56222,40.6328051 131.153354,42.1171875 C129.681992,43.0286504 127.937218,43.5624992 125.918979,43.71875 L125.918979,47.6445312 Z" id="Price-icon"></path>
                </g>
            </g>
        </g>
    </g>
</svg>