<?xml version="1.0" encoding="UTF-8" standalone="no"?>
<svg width="60px" height="60px" viewBox="0 0 60 60" version="1.1" xmlns="http://www.w3.org/2000/svg" xmlns:xlink="http://www.w3.org/1999/xlink">
    <!-- Generator: Sketch 41.2 (35397) - http://www.bohemiancoding.com/sketch -->
    <title>Documents icon</title>
    <desc>Created with Sketch.</desc>
    <defs></defs>
    <g id="Page-1" stroke="none" stroke-width="1" fill="none" fill-rule="evenodd">
        <g id="slide-2" transform="translate(-548.000000, -373.000000)" fill="#FFFFFF">
            <g id="Content" transform="translate(168.000000, 246.000000)">
                <g id="Small-feature-2" transform="translate(285.000000, 127.000000)">
                    <path d="M151.785714,12.8571429 L137.857143,12.8571429 C136.551339,12.8571429 134.877232,13.4263393 133.571429,14.1964286 L133.571429,3.21428571 C133.571429,1.43973214 132.131696,0 130.357143,0 L116.428571,0 C114.654018,0 112.176339,1.03794643 110.9375,2.27678571 L97.2767857,15.9375 C96.0379464,17.1763393 95,19.6540179 95,21.4285714 L95,43.9285714 C95,45.703125 96.4397321,47.1428571 98.2142857,47.1428571 L116.428571,47.1428571 L116.428571,56.7857143 C116.428571,58.5602679 117.868304,60 119.642857,60 L151.785714,60 C153.560268,60 155,58.5602679 155,56.7857143 L155,16.0714286 C155,14.296875 153.560268,12.8571429 151.785714,12.8571429 L151.785714,12.8571429 Z M133.571429,19.9888393 L133.571429,30 L123.560268,30 L133.571429,19.9888393 Z M112.142857,7.13169643 L112.142857,17.1428571 L102.131696,17.1428571 L112.142857,7.13169643 Z M118.705357,28.7946429 C117.466518,30.0334821 116.428571,32.5111607 116.428571,34.2857143 L116.428571,42.8571429 L99.2857143,42.8571429 L99.2857143,21.4285714 L113.214286,21.4285714 C114.988839,21.4285714 116.428571,19.9888393 116.428571,18.2142857 L116.428571,4.28571429 L129.285714,4.28571429 L129.285714,18.2142857 L118.705357,28.7946429 Z M150.714286,55.7142857 L120.714286,55.7142857 L120.714286,34.2857143 L134.642857,34.2857143 C136.417411,34.2857143 137.857143,32.8459821 137.857143,31.0714286 L137.857143,17.1428571 L150.714286,17.1428571 L150.714286,55.7142857 Z" id="Documents-icon"></path>
                </g>
            </g>
        </g>
    </g>
</svg>